Patient4_TMGait_0pt6_01_right_24_EMG.mot
version=1
nRows=26
nColumns=33
inDegrees=no
endheader
time	1LAddLong	2LGlutMax	3LGlutMed	4LIliopsoas	5LSemiMemb	6LBicFemLong	7LRecFem	8LVastMed	9LVastLat	10LGasMed	11LTibAnt	12lTibPost	13LPeroneusLong	14LSol	15LExtDigLong	16LFlexDigLong	17RAddLong	18RGlutMax	19RGlutMed	20RIliopsoas	21RSemiMemb	22RBicFemLong	23RRecFem	24RVastMed	25RVastLat	26RGasMed	27RTibAnt	28RTibPost	29RPeroneusLong	30RSol	31RExtDigLong	32RFlexDigLong
28.62	0.000153	-0.23529	-0.012207	-0.004883	-0.069885	-0.054169	0.19409	0.014191	0.033112	0.00824	0.16983	0.00473	-0.024109	0.13687	-0.24033	-0.10208	0.067444	0.032196	0.035553	-0.046692	0.007019	-0.001526	0.016479	-0.21454	-0.050964	-0.002289	0.72632	-0.002136	-0.21133	0.017242	-0.004425	-0.011597
28.621	-0.000763	-0.23285	0.010681	-0.002136	0.0177	-0.037537	0.14771	0.018921	-0.012817	-0.010376	0.03952	0.012512	-0.036774	0.20355	-0.15015	-0.19134	0.046539	0.05127	0.002594	0.051575	0.015564	-0.021057	0.013733	-0.17548	-0.037231	-0.001221	0.35431	0.004425	-0.20981	-0.050049	-0.003662	-0.010681
28.622	0.001678	-0.22522	-0.046387	0.005188	0.099792	-0.085297	0.030365	0.020599	0.001984	-0.006866	-0.14923	0.012054	-0.052643	0.29037	-0.29404	-0.38544	0.077209	0.044098	0.024567	0.10117	0.009155	-0.035248	-0.055237	-0.14465	-0.026398	-0.001373	-0.17639	0.001831	-0.10376	-0.14633	-0.005798	-0.012207
28.623	0.00061	-0.20706	-0.020752	0.000916	0.031128	-0.053406	0.03891	0.019684	0.029602	0.0354	-0.049591	0.008392	-0.16617	0.36987	-0.28107	-0.96313	0.057831	0.089569	0.066376	0.099182	0.008392	-0.030823	-0.15579	-0.14114	-0.014343	-0.015411	-0.11749	0.005798	0.25772	-0.19531	-0.002136	-0.009003
28.624	-0.000305	-0.22476	0.029449	0.006104	0.022736	-0.049591	0.10422	0.01709	-0.00412	0.019989	-0.037384	0.0177	-0.13825	0.38422	-0.32166	1.0931	-0.002594	0.07843	0.072937	0.051422	-0.008545	-0.028076	-0.13107	-0.075073	-0.020142	-0.015259	0.12116	0.001984	0.11002	-0.21133	-0.004578	0.002289
28.625	-0.002594	-0.24872	0.007477	0.003815	0.009613	-0.065613	0.10696	0.003662	-0.027924	-0.0177	-0.12161	0.008698	0.055695	0.35339	-0.37552	1.1638	-0.021515	0.016937	0.076752	-0.015564	-0.009003	-0.012512	-0.06073	-0.1387	-0.00412	-0.007172	0.37369	0.005798	-0.018616	-0.23361	-0.007324	-0.003357
28.626	-0.005493	-0.25681	0.021057	-0.001526	0.01297	-0.063629	0.13275	0.00351	0.030823	0.005646	-0.093689	0.011292	0.11612	0.22919	-0.30655	-0.83221	-0.008087	0.048523	-0.008698	-0.10849	0.000153	0.016785	-0.068665	-0.1207	-0.016632	-0.000458	-0.057831	0.00824	-0.25742	-0.22537	-0.003662	0.00061
28.627	0.005188	-0.23361	0.024414	0.00412	0.025024	-0.076904	0.22278	0.009155	0.090485	0.070648	0.010376	0.002747	0.046387	0.093231	-0.16754	0.53162	-0.011292	0.019684	-0.029144	-0.14404	0.008545	-0.004883	0.001984	-0.12756	-0.023956	0.000763	-0.31342	0.006866	-0.53177	-0.18326	-0.002136	0.001526
28.628	0.003204	-0.22049	0.028992	0.016174	0.022583	-0.04715	0.20691	0.012207	0.019073	0.027771	0.003967	0.006104	-0.022278	-0.18936	-0.042267	0.34225	-0.018158	0.006256	-0.04715	-0.15289	-0.010071	0.023346	0.013275	-0.16495	-0.020752	0.001678	-0.000458	0.007782	-0.44083	-0.10819	-0.000305	0.002594
28.629	0.003204	-0.20676	0.032043	0.020905	0.013123	-0.009003	0.14114	0.016479	-0.061493	-0.022583	0.065918	0.003357	-0.015717	-0.033569	-0.009613	0.14923	-0.042114	-0.044403	-0.067139	-0.0354	-0.01297	-0.006256	0.01297	-0.17212	-0.006714	-0.000916	0.063019	0.005341	-0.1329	0.064392	-0.000305	-0.014954
28.63	-0.004425	-0.21774	-0.039063	0.00473	0.003052	0.040588	0.17853	0.00824	-0.036316	0.062561	0.13031	0.005493	0.027924	0.005035	0.29037	-0.15762	-0.059204	-0.045776	-0.028534	0.009613	-0.016937	0.011292	0.054169	-0.12192	-0.039978	0.001221	-0.1384	0.014191	0.60364	-0.032806	-0.00412	-0.016022
28.631	-0.005798	-0.22339	-0.001984	0.010223	-0.018768	0.027466	0.27802	0.001068	-0.028687	0.15564	-0.024109	0.001526	0.06485	-0.015259	0.1828	-0.066986	-0.067444	-0.075836	-0.098419	-0.040436	-0.014496	0.014954	0.06073	-0.15625	-0.018158	-0.001221	-0.002899	0.009308	0.60089	-0.04715	-0.002899	-0.002136
28.632	-0.000458	-0.19669	0.001831	0.012665	-0.022278	0.00946	0.18845	0.014648	0.01297	0.29892	-0.14191	0.008545	0.052032	-0.087128	-0.22858	-0.14297	-0.070953	-0.078888	-0.0354	-0.068359	-0.018311	0.018616	0.096893	-0.12177	-0.019226	0.003967	-0.87738	0.015717	0.23514	-0.091553	-0.000458	0.004272
28.633	0.011139	-0.19257	0.06073	-0.009766	0.014191	0.015106	0.13123	-0.005341	0.12665	0.095978	-0.003967	0.009766	0.010681	-0.013428	-0.17609	0.16495	-0.079803	-0.030975	-0.02243	-0.06134	-0.006714	0.032349	0.14572	-0.12741	-0.012665	-0.002441	-0.65552	0.017395	0.085754	-0.10529	-0.002747	-0.001831
28.634	0.005646	-0.14572	0.084839	0.011597	0.017395	0.01709	0.10757	0.006714	0.058136	-0.038605	0.094604	0.010529	0.045013	-0.002441	-0.17914	0.00061	-0.05722	-0.032501	0.006866	-0.092926	0.007477	0.020294	0.13504	-0.096436	-0.041046	-0.003967	-0.52078	0.015106	0.10864	-0.046997	-0.005035	-0.005035
28.635	0.007477	-0.19333	-0.029297	0.010681	0.016479	-0.001068	0.080109	0.010529	0.008392	-0.022888	-0.10193	0.011292	0.038452	-0.075684	-0.032959	-0.39444	-0.04364	-0.083008	0.092621	0.013123	0.017242	0.036469	0.082397	-0.11719	-0.028076	-0.002594	-0.44922	0.013428	0.14938	-0.044556	-0.001373	-0.00473
28.636	0.005646	-0.17334	-0.12878	0.003662	0.01236	-0.019684	0.066223	0.009155	0.064545	-0.005951	-0.055847	0.019531	-0.037231	-0.18112	-0.018158	0.10941	-0.02121	-0.047913	0.22736	0.020294	0.021973	0.025177	0.040741	-0.064545	-0.035095	-0.014801	-0.1358	0.013733	0.11475	0.032501	-0.001068	0.003357
28.637	0.006561	-0.12116	-0.14557	-0.013428	0.013885	0.027313	0.10773	0.009155	0.058899	0.024719	-0.013275	0.020599	-0.073547	-0.33005	0.10742	-0.2652	-0.000153	-0.021667	-0.007477	0.034485	0.023499	0.053864	-0.035858	-0.059814	-0.052338	-0.014038	-0.060425	0.015259	-0.02533	0.12711	-0.002594	-0.010223
28.638	0.002289	-0.090485	-0.026398	-0.00885	0.001373	0.011902	0.15121	0.009308	0.079193	0.045166	0.033875	0.009918	-0.068817	-0.36697	0.048218	0.11398	0.007629	-0.046082	-0.034943	0.02655	0.024872	0.035858	-0.13687	-0.03891	-0.030212	-0.016174	-0.11032	0.007477	-0.084229	0.23712	0.001831	-0.005646
28.639	0.001221	-0.088501	0.17059	0.00946	-0.011444	-0.011749	0.15076	0.006409	0.06073	0.04303	0.22751	0.005951	-0.064697	-0.27008	0.29007	0.12436	-0.011749	-0.065613	0.021667	0.010071	0.005188	0.01297	-0.19455	-0.08667	-0.044708	-0.008392	-0.20966	0.011749	0.009613	0.1471	-0.006714	0.001221
28.64	0.007477	-0.09491	0.29053	0.036621	0.000153	-0.039215	0.14557	0.016632	0.016174	0.019073	0.38696	0.009155	-0.04303	-0.20935	0.20615	-0.012817	0.001984	-0.095978	0.044861	0.042877	-0.009766	0.014801	-0.074615	-0.11841	-0.046692	-0.007629	-0.083466	0.019379	-0.29388	0.035858	-0.003052	0.001068
28.641	-0.000763	-0.11322	0.22614	0.017548	0.012665	-0.043335	0.06485	0.013123	-0.011292	0.015411	0.23941	0.011139	-0.019226	-0.25848	0.048981	-0.065918	-0.009918	-0.072937	-0.056915	0.13886	-0.020752	-0.000305	-0.036926	-0.10757	-0.051727	-0.003052	0.23056	0.018921	-0.49301	-0.054321	-0.000458	0.002594
28.642	0.004578	-0.12116	0.12222	-0.005951	0.014343	-0.029144	0.044403	0.01297	-0.01358	-0.008087	0.07843	0.006866	0.039978	-0.18417	0.02243	-0.071106	0.009918	-0.12238	-0.12924	0.10315	-0.008392	0.006409	0.018463	-0.09964	-0.0354	-0.009613	0.44632	0.009613	-0.22415	0.018463	0.004425	0.005798
28.643	0.006561	-0.084686	0.12024	0.002289	0.014648	-0.020142	0.15762	0.004272	0.043488	-0.004272	-0.23514	0.002747	0.060272	-0.14954	-0.2214	-0.077362	0.00351	-0.17593	-0.059662	0.057678	-0.006714	-0.013885	0.16037	0.033417	-0.046539	-0.012817	0.053864	0.012817	0.64545	0.042114	-0.004578	-0.000916
28.644	0.00824	-0.046997	0.10559	0.014038	0.008545	-0.019989	0.29739	-0.00946	0.052795	0.00946	-0.20599	0.008087	0.075226	-0.097351	-0.12146	-0.063019	0.014038	-0.1355	-0.37949	0.030823	-0.001678	-0.020752	0.2626	0.026093	-0.022888	0.003967	-0.039673	0.016327	0.44784	0.024414	-0.002289	-0.003052
28.645	0.005798	-0.0383	0.084076	-0.001984	0.001831	-0.029297	0.34317	-0.00824	0.017395	0.007172	-0.09903	0.003815	0.046539	-0.003662	-0.008392	-0.059967	0.014954	-0.14008	-0.18601	-0.002136	-0.010834	-0.020752	0.26901	0.001526	-0.039368	-0.011444	0.11276	0.014801	-0.35782	-0.061951	-0.004883	-0.01297
